<?xml version="1.0" standalone="no"?>
<!DOCTYPE svg PUBLIC "-//W3C//DTD SVG 20010904//EN"
 "http://www.w3.org/TR/2001/REC-SVG-20010904/DTD/svg10.dtd">
<svg version="1.0" xmlns="http://www.w3.org/2000/svg"
 width="384.000000pt" height="384.000000pt" viewBox="0 0 384.000000 384.000000"
 preserveAspectRatio="xMidYMid meet">

<g transform="translate(0.000000,384.000000) scale(0.100000,-0.100000)"
fill="#000000" stroke="none">
<path d="M1860 3770 c-14 -4 -57 -8 -96 -9 -39 -1 -87 -7 -106 -15 -18 -8 -63
-18 -98 -22 -36 -4 -87 -15 -113 -25 -26 -11 -56 -19 -66 -19 -25 0 -215 -77
-311 -125 -138 -70 -276 -171 -397 -292 -104 -104 -238 -265 -251 -303 -3 -8
-13 -24 -22 -35 -10 -11 -36 -56 -58 -100 -108 -220 -137 -294 -147 -385 -4
-30 -13 -74 -22 -98 -20 -57 -13 -307 11 -402 27 -105 66 -223 82 -247 8 -12
14 -28 14 -35 0 -7 9 -24 20 -38 11 -14 20 -31 20 -38 1 -49 223 -315 320
-382 19 -14 44 -32 54 -42 11 -10 23 -18 27 -18 5 0 28 -13 52 -30 25 -16 49
-30 55 -30 6 0 12 -3 14 -7 4 -10 131 -73 146 -73 7 0 12 -4 12 -10 0 -5 9
-10 20 -10 11 0 20 -4 20 -10 0 -5 7 -10 16 -10 9 0 55 -13 103 -29 125 -42
164 -49 281 -55 58 -3 136 -12 175 -20 38 -8 71 -13 74 -11 8 9 -41 53 -85 77
-24 12 -44 26 -44 30 0 5 -9 8 -20 8 -11 0 -20 4 -20 8 0 4 -18 19 -40 32 -22
14 -40 28 -40 33 0 4 -6 7 -12 7 -7 0 -26 11 -42 25 -16 14 -32 25 -37 25 -4
0 -57 49 -118 109 -136 134 -222 260 -296 436 -63 151 -73 493 -19 690 69 255
109 361 195 518 12 21 62 78 111 128 98 99 268 216 398 276 103 47 298 113
336 113 17 0 49 7 69 16 80 33 363 47 545 26 175 -20 455 -92 551 -143 20 -10
42 -19 48 -19 6 0 30 -9 54 -19 61 -28 107 -41 107 -32 0 5 -11 29 -25 54 -31
55 -119 138 -255 238 -58 43 -244 142 -320 169 -25 10 -71 29 -103 43 -32 15
-70 27 -85 27 -15 0 -52 7 -82 16 -30 9 -89 20 -130 25 -102 13 -439 20 -470
9z"/>
<path d="M2230 3309 c-14 -6 -60 -17 -103 -24 -43 -8 -112 -30 -153 -50 -42
-19 -78 -35 -81 -35 -2 0 -24 -14 -48 -30 -39 -27 -64 -64 -52 -76 2 -3 60
-11 128 -19 203 -24 271 -36 464 -87 41 -11 85 -30 145 -65 54 -32 144 -87
150 -93 3 -3 27 -23 54 -44 27 -22 81 -71 121 -110 39 -39 84 -77 99 -84 29
-13 550 -16 593 -4 21 7 21 8 6 47 -8 22 -20 55 -26 73 -7 17 -15 32 -19 32
-5 0 -8 9 -8 20 0 11 -4 20 -10 20 -5 0 -10 7 -10 16 0 17 -74 131 -102 155
-10 9 -18 22 -18 28 0 14 -77 91 -90 91 -5 0 -15 6 -22 13 -101 97 -337 194
-533 219 -114 15 -454 19 -485 7z"/>
<path d="M1908 1987 l-28 -12 38 -40 c21 -22 49 -56 62 -75 13 -19 27 -37 30
-40 4 -3 44 -61 90 -130 79 -118 113 -160 131 -160 11 0 49 55 49 72 0 7 9 24
20 38 11 14 20 28 20 33 0 15 103 216 120 234 9 11 23 30 30 43 25 46 2 50
-279 50 -177 -1 -264 -5 -283 -13z"/>
<path d="M2668 1984 c-24 -12 -108 -121 -108 -139 0 -3 -22 -38 -49 -78 -26
-40 -58 -92 -71 -117 -12 -25 -25 -47 -29 -50 -3 -3 -12 -16 -19 -29 -8 -13
-22 -39 -32 -57 -10 -18 -37 -59 -58 -91 -65 -95 -82 -137 -82 -197 0 -40 5
-60 20 -78 11 -12 33 -43 50 -68 16 -25 41 -58 54 -75 l25 -30 31 34 c16 18
30 37 30 42 0 4 6 14 13 21 14 15 77 117 77 124 0 3 13 24 28 47 16 23 43 68
60 100 18 31 46 83 64 115 17 31 34 59 38 62 4 3 20 30 37 60 43 79 76 134 83
140 4 3 30 48 60 100 30 52 56 97 59 100 15 13 33 59 27 69 -11 18 -274 14
-308 -5z"/>
<path d="M3210 1987 c-29 -14 -44 -26 -53 -47 -4 -8 -18 -33 -32 -55 -14 -22
-35 -59 -47 -82 -12 -24 -26 -43 -30 -43 -4 0 -8 -7 -8 -16 0 -8 -13 -34 -29
-57 -16 -23 -38 -59 -50 -80 -11 -20 -31 -54 -42 -74 -12 -21 -30 -50 -40 -65
-11 -14 -19 -31 -19 -37 0 -6 -4 -11 -10 -11 -5 0 -10 -8 -10 -18 0 -10 -9
-24 -20 -32 -11 -8 -20 -22 -20 -32 0 -10 -4 -18 -10 -18 -5 0 -10 -5 -10 -11
0 -6 -9 -23 -20 -39 -25 -36 -90 -150 -97 -172 -3 -10 -9 -18 -14 -18 -5 0 -9
-9 -9 -20 0 -11 -4 -20 -8 -20 -5 0 -19 -19 -32 -42 -12 -24 -37 -65 -55 -93
-18 -27 -45 -72 -60 -100 -15 -27 -35 -61 -45 -75 -10 -14 -28 -43 -41 -65
-12 -22 -36 -64 -53 -94 -17 -29 -44 -77 -61 -105 -26 -46 -99 -168 -130 -217
-46 -74 -95 -167 -95 -180 0 -18 26 -18 319 -5 181 8 235 45 362 244 32 51 59
95 59 98 0 3 14 25 30 49 17 24 30 48 30 54 0 6 5 11 10 11 6 0 10 7 10 16 0
9 8 24 18 33 9 9 23 28 31 44 8 15 18 27 23 27 4 0 8 9 8 20 0 11 5 20 10 20
6 0 10 7 10 15 0 9 8 25 18 35 10 11 27 36 38 57 36 68 49 88 64 103 8 8 30
44 49 79 18 36 41 73 50 82 9 10 26 35 37 56 31 58 48 88 54 93 17 15 50 70
50 83 0 9 4 17 8 19 15 6 76 101 136 211 11 21 27 45 36 55 8 9 26 38 40 65
14 26 28 47 32 47 5 0 8 5 8 11 0 5 18 37 40 69 22 32 40 62 40 65 0 7 38 62
63 91 11 13 17 33 15 50 l-3 29 -260 2 c-182 1 -268 -2 -285 -10z"/>
<path d="M101 1965 c-9 -20 -13 -87 -14 -200 -1 -200 16 -339 58 -465 8 -25
26 -80 40 -122 22 -69 46 -125 83 -195 7 -13 17 -33 23 -44 50 -97 122 -204
171 -251 21 -20 38 -40 38 -45 0 -14 66 -83 80 -83 6 0 28 -17 48 -38 44 -45
144 -122 160 -122 5 0 12 -4 14 -8 11 -28 349 -191 396 -192 7 0 31 -9 55 -19
54 -25 304 -83 432 -101 39 -5 86 -13 105 -16 31 -5 40 -1 71 28 20 18 63 84
96 148 33 63 80 149 103 190 24 41 57 102 74 135 16 33 42 78 56 100 26 39 80
155 80 170 0 9 -106 1 -235 -17 -89 -13 -530 -14 -675 -2 -97 8 -231 32 -297
53 -155 51 -303 111 -303 123 0 5 -5 8 -11 8 -5 0 -37 18 -69 40 -32 22 -61
40 -64 40 -3 0 -58 53 -122 117 -106 105 -204 223 -204 243 0 4 -18 37 -39 72
-52 86 -108 259 -125 383 -12 95 -13 98 -25 70z"/>
</g>
</svg>
