<?xml version="1.0" standalone="no"?>
<!DOCTYPE svg PUBLIC "-//W3C//DTD SVG 20010904//EN"
 "http://www.w3.org/TR/2001/REC-SVG-20010904/DTD/svg10.dtd">
<svg version="1.0" xmlns="http://www.w3.org/2000/svg"
 width="363.000000pt" height="363.000000pt" viewBox="0 0 363.000000 363.000000"
 preserveAspectRatio="xMidYMid meet">

<g transform="translate(0.000000,363.000000) scale(0.100000,-0.100000)"
fill="#000000" stroke="none">
<path d="M1650 3209 c-221 -13 -413 -54 -614 -133 -334 -130 -591 -319 -844
-619 -41 -48 -72 -91 -70 -96 1 -5 69 -67 149 -138 80 -70 231 -204 336 -298
448 -400 471 -420 479 -412 8 7 -100 145 -138 175 -75 60 -170 154 -227 223
-14 18 -43 51 -65 73 -21 23 -50 57 -64 76 -35 46 -85 94 -161 154 -98 77
-108 117 -51 201 45 66 229 236 325 301 218 149 512 265 752 299 217 31 582
28 713 -5 197 -50 275 -75 387 -123 159 -69 305 -156 422 -251 169 -137 251
-230 251 -285 0 -40 -20 -63 -240 -277 -286 -278 -303 -295 -330 -329 -14 -16
-45 -45 -70 -64 -25 -19 -49 -37 -53 -41 -4 -4 6 -5 23 -2 16 2 30 1 30 -2 0
-3 -17 -30 -37 -59 l-37 -52 54 45 c80 66 213 183 327 285 468 422 501 451
557 490 18 13 13 21 -77 122 -130 147 -265 278 -367 352 -390 288 -851 420
-1360 390z"/>
<path d="M1828 2902 c-15 -3 -18 -14 -18 -63 l0 -59 73 0 c81 0 85 2 125 73
16 27 18 39 9 42 -18 5 -169 11 -189 7z"/>
<path d="M1583 2892 c-8 -5 -4 -21 15 -57 l27 -50 78 -3 77 -3 0 61 0 60 -92
0 c-51 0 -98 -4 -105 -8z"/>
<path d="M1360 2845 c-155 -45 -242 -75 -258 -89 -10 -9 11 -34 95 -118 60
-58 118 -110 130 -117 20 -10 32 -2 135 95 148 140 143 132 111 180 -38 57
-64 84 -82 83 -9 0 -68 -15 -131 -34z"/>
<path d="M2055 2855 c-8 -14 -22 -36 -30 -50 -28 -46 -19 -64 78 -157 93 -90
141 -128 165 -128 7 0 65 51 129 114 l116 115 -39 16 c-100 43 -338 115 -381
115 -13 0 -29 -10 -38 -25z"/>
<path d="M1700 2742 c-55 -3 -55 -3 -160 -107 -58 -57 -124 -119 -148 -137
l-43 -33 3 -70 3 -70 68 -3 67 -3 116 121 c64 66 130 128 146 138 28 16 29 18
26 91 -2 41 -7 75 -13 76 -5 0 -35 -1 -65 -3z"/>
<path d="M1823 2744 c-9 -4 -13 -27 -13 -66 l0 -61 124 -121 c68 -66 131 -133
141 -148 16 -26 22 -28 85 -28 45 0 69 4 72 13 3 6 6 40 7 73 l2 62 -47 38
c-67 54 -220 206 -226 223 -3 11 -23 16 -69 18 -35 1 -70 0 -76 -3z"/>
<path d="M929 2669 c-170 -101 -201 -123 -294 -210 -82 -78 -124 -139 -125
-180 0 -17 325 -359 341 -359 16 0 20 45 7 70 -7 14 -60 70 -117 125 -57 55
-121 121 -143 147 l-39 47 128 128 c71 70 143 141 160 157 l32 28 67 -58 c36
-32 106 -100 154 -151 l88 -93 66 0 66 0 0 71 0 71 -137 134 c-76 73 -141 134
-144 134 -3 0 -52 -28 -110 -61z"/>
<path d="M2435 2618 c-60 -60 -123 -117 -138 -126 -27 -16 -28 -19 -25 -92 l3
-75 62 -3 62 -3 103 107 c57 59 131 128 164 153 l62 47 -27 16 c-14 8 -53 32
-85 52 -33 20 -62 35 -65 35 -3 -1 -55 -51 -116 -111z"/>
<path d="M2740 2614 c0 -4 69 -75 153 -159 l152 -152 -70 -69 c-38 -39 -108
-105 -154 -147 -77 -72 -84 -81 -89 -124 -5 -43 -4 -45 15 -34 26 13 291 292
316 331 18 29 18 30 -10 81 -28 52 -118 141 -223 219 -63 48 -90 64 -90 54z"/>
<path d="M748 2441 c-65 -65 -118 -126 -118 -135 0 -19 230 -256 249 -256 6 0
68 56 138 124 108 106 124 126 115 142 -16 30 -238 244 -252 244 -8 0 -67 -53
-132 -119z"/>
<path d="M1678 2453 c-60 -60 -114 -116 -119 -125 -14 -26 2 -51 100 -153 115
-120 115 -120 153 -104 39 16 238 213 238 235 0 18 -234 254 -252 254 -6 0
-60 -48 -120 -107z"/>
<path d="M2586 2448 c-71 -69 -116 -120 -116 -132 0 -29 33 -70 141 -174 82
-79 100 -92 115 -84 35 19 244 231 244 248 0 24 -236 254 -260 254 -5 0 -60
-50 -124 -112z"/>
<path d="M1389 2293 l-37 -4 0 -76 0 -75 67 6 c72 7 152 -9 221 -44 22 -11 40
-17 40 -13 0 3 -35 43 -77 87 -43 45 -82 89 -88 99 -11 20 -62 28 -126 20z"/>
<path d="M2270 2209 l0 -85 43 -21 c62 -30 134 -99 169 -159 l30 -54 91 6 c51
3 95 8 98 10 3 2 2 26 -4 54 -8 44 -19 59 -91 129 -44 43 -95 90 -111 104 -17
14 -40 42 -50 61 -21 38 -25 40 -117 40 l-58 1 0 -86z"/>
<path d="M1155 2264 c-19 -29 -178 -188 -224 -225 -26 -20 -33 -33 -38 -76 -7
-62 -11 -59 108 -67 l86 -5 17 37 c30 61 74 109 146 157 l70 47 0 79 0 79 -74
0 c-68 0 -75 -2 -91 -26z"/>
<path d="M2006 2198 c-49 -49 -86 -91 -83 -94 2 -3 33 5 68 17 48 17 86 23
152 22 l87 0 0 74 0 73 -67 -1 -68 -1 -89 -90z"/>
<path d="M3505 2230 c27 -12 43 -12 25 0 -8 5 -22 9 -30 9 -10 0 -8 -3 5 -9z"/>
<path d="M3560 2199 c0 -6 -8 -18 -17 -26 -16 -13 -16 -13 4 -3 27 13 36 27
23 35 -5 3 -10 1 -10 -6z"/>
<path d="M3437 2130 c10 -11 22 -20 27 -20 5 0 1 9 -9 20 -10 11 -22 20 -26
20 -5 0 -1 -9 8 -20z"/>
<path d="M3407 2075 c3 -8 9 -12 14 -9 12 7 11 11 -5 17 -10 4 -13 1 -9 -8z"/>
<path d="M3280 2048 c0 -14 50 -68 62 -68 5 0 -3 12 -17 27 -14 15 -25 33 -25
40 0 7 -4 13 -10 13 -5 0 -10 -5 -10 -12z"/>
<path d="M3186 1955 c-2 -6 11 -21 30 -34 19 -13 31 -28 27 -35 -4 -7 -2 -7 7
1 10 9 6 19 -23 46 -21 19 -38 29 -41 22z"/>
<path d="M3094 1876 c-21 -23 -25 -36 -10 -30 9 3 16 11 16 17 0 5 9 2 20 -8
11 -10 20 -14 20 -9 0 18 -35 41 -46 30z"/>
<path d="M920 1850 c0 -9 143 -160 152 -160 2 0 3 35 3 77 0 60 -4 80 -15 85
-24 11 -140 9 -140 -2z"/>
<path d="M2523 1774 l1 -86 73 77 c40 42 73 81 73 86 0 5 -33 9 -74 9 l-74 0
1 -86z"/>
<path d="M3028 1773 c7 -3 16 -2 19 1 4 3 -2 6 -13 5 -11 0 -14 -3 -6 -6z"/>
<path d="M2969 1753 c-13 -16 -12 -17 4 -4 16 13 21 21 13 21 -2 0 -10 -8 -17
-17z"/>
<path d="M3033 1753 c9 -2 25 -2 35 0 9 3 1 5 -18 5 -19 0 -27 -2 -17 -5z"/>
<path d="M2905 1688 l-40 -41 48 38 c26 22 47 41 47 42 0 12 -22 -3 -55 -39z"/>
<path d="M2939 1628 c-12 -23 -12 -23 10 -4 23 21 26 26 11 26 -5 0 -15 -10
-21 -22z"/>
<path d="M2833 1534 c-20 -18 -22 -22 -7 -15 21 10 52 41 41 41 -3 0 -19 -12
-34 -26z"/>
<path d="M2741 1446 l-24 -31 28 27 c16 15 27 29 24 31 -2 3 -15 -10 -28 -27z"/>
<path d="M2609 1433 c-13 -16 -12 -17 4 -4 9 7 17 15 17 17 0 8 -8 3 -21 -13z"/>
<path d="M2344 1379 c-24 -27 -100 -62 -115 -53 -6 4 -14 3 -18 -2 -28 -39
-402 -394 -414 -394 -9 0 -47 30 -85 68 -358 349 -401 384 -431 349 -8 -10 29
-48 162 -164 95 -83 210 -187 257 -231 71 -68 87 -79 103 -70 10 5 78 64 151
131 72 67 195 180 274 251 78 71 142 131 142 133 0 7 -8 2 -26 -18z"/>
<path d="M2609 1371 c28 -25 35 -26 52 -5 12 15 11 16 -8 10 -12 -4 -33 -2
-45 4 l-23 11 24 -20z"/>
<path d="M2230 1340 c0 -5 5 -10 11 -10 5 0 7 5 4 10 -3 6 -8 10 -11 10 -2 0
-4 -4 -4 -10z"/>
<path d="M2425 1250 c-3 -5 -39 -35 -80 -66 -41 -30 -78 -61 -82 -67 -8 -14
-8 -14 94 66 66 53 92 77 79 77 -3 0 -8 -4 -11 -10z"/>
<path d="M2480 1199 l-35 -30 38 26 c33 24 43 35 34 35 -1 0 -18 -14 -37 -31z"/>
<path d="M2375 1114 c-30 -27 -32 -31 -9 -16 28 19 62 53 53 52 -2 -1 -22 -17
-44 -36z"/>
<path d="M2235 1050 c3 -5 14 -10 23 -10 15 0 15 2 2 10 -20 13 -33 13 -25 0z"/>
<path d="M2198 1023 c7 -3 16 -2 19 1 4 3 -2 6 -13 5 -11 0 -14 -3 -6 -6z"/>
<path d="M2123 993 c-21 -8 -15 -30 13 -52 16 -13 24 -27 20 -36 -4 -12 -1
-12 21 2 24 16 25 18 8 22 -36 6 -64 35 -53 54 5 9 8 17 6 16 -2 0 -9 -3 -15
-6z"/>
<path d="M2039 903 c-13 -16 -12 -17 4 -4 16 13 21 21 13 21 -2 0 -10 -8 -17
-17z"/>
<path d="M2071 840 c-12 -17 -27 -28 -33 -24 -7 4 -8 3 -4 -4 9 -14 37 2 55
30 20 32 6 30 -18 -2z"/>
<path d="M1895 780 c-7 -11 0 -13 26 -11 9 1 22 -5 29 -14 14 -17 1 -21 -18
-5 -7 5 -3 0 7 -11 12 -13 26 -19 35 -16 24 9 20 19 -17 45 -36 24 -53 27 -62
12z"/>
<path d="M928 497 c-5 -10 -8 -42 -7 -70 1 -50 1 -51 10 -19 12 40 8 118 -3
89z"/>
<path d="M1101 482 c-6 -11 -11 -37 -12 -60 -2 -22 -7 -39 -11 -36 -12 8 -21
-23 -14 -49 3 -13 15 -34 27 -48 20 -23 21 -24 35 -5 8 11 14 27 14 36 0 28
20 41 44 28 29 -15 36 -28 36 -70 0 -55 17 -46 25 13 8 57 -2 179 -15 179 -5
0 -17 -12 -28 -27 -24 -34 -52 -26 -52 16 0 17 -6 31 -16 35 -22 8 -22 8 -33
-12z"/>
<path d="M1790 489 c0 -6 6 -9 14 -6 7 3 19 0 25 -6 8 -8 11 -8 11 0 0 11 -22
23 -41 23 -5 0 -9 -5 -9 -11z"/>
<path d="M530 479 c-31 -12 -70 -48 -70 -64 0 -18 40 -60 78 -81 74 -42 12
-85 -65 -44 -52 28 -70 18 -28 -16 34 -27 89 -31 119 -9 11 8 30 15 42 15 37
0 37 18 1 52 -59 55 -71 92 -34 104 24 7 37 22 37 42 0 14 -44 15 -80 1z"/>
<path d="M2064 441 c-16 -27 -33 -47 -40 -44 -7 2 -15 0 -19 -6 -4 -7 5 -11
24 -11 20 0 34 -7 41 -19 15 -29 13 -38 -17 -67 -22 -21 -24 -25 -8 -19 47 17
57 17 79 -4 25 -24 96 -41 96 -23 0 6 -27 32 -60 57 -52 40 -89 82 -78 89 2 2
19 7 38 12 43 12 51 40 19 65 -36 28 -45 24 -75 -30z"/>
<path d="M2710 466 c-5 -14 -25 -34 -45 -43 -21 -10 -35 -24 -35 -35 0 -24 19
-23 45 2 16 15 37 21 86 23 57 2 64 4 67 24 4 25 -15 38 -71 48 -33 7 -38 5
-47 -19z"/>
<path d="M1529 448 c-7 -180 -6 -208 7 -208 26 0 56 198 34 225 -21 26 -40 17
-41 -17z"/>
<path d="M1890 465 c-7 -8 -26 -21 -42 -30 -26 -13 -34 -13 -65 0 -41 17 -45
16 -84 -37 -34 -48 -37 -83 -8 -99 25 -13 35 -5 46 41 7 27 15 36 35 38 32 4
41 -6 81 -88 19 -38 39 -66 50 -68 26 -5 21 12 -18 58 -35 42 -58 101 -49 125
3 8 21 23 40 34 19 11 34 25 34 31 0 14 -5 13 -20 -5z"/>
<path d="M2472 458 c2 -17 9 -22 23 -20 45 8 44 42 -1 42 -21 0 -25 -4 -22
-22z"/>
<path d="M3030 464 c-60 -16 -84 -38 -76 -69 3 -11 6 -48 6 -82 0 -81 21 -86
41 -10 17 63 44 71 70 19 31 -61 67 -109 83 -109 17 0 14 6 -21 54 -16 20 -26
51 -30 86 -5 49 -3 59 22 91 l27 36 -33 -1 c-19 0 -59 -7 -89 -15z"/>
<path d="M2336 438 c-22 -31 -20 -96 3 -135 23 -36 59 -52 72 -32 13 21 11 97
-3 101 -9 3 -8 9 5 22 9 10 17 23 17 30 0 39 -69 49 -94 14z"/>
<path d="M1396 434 c-21 -20 -28 -51 -24 -105 2 -36 7 -45 25 -47 16 -2 29 7
47 35 26 37 31 68 20 111 -7 26 -45 30 -68 6z"/>
<path d="M750 385 c-26 -42 -21 -85 10 -85 10 0 21 4 24 9 3 5 20 12 38 15 36
7 92 51 84 65 -6 10 -85 31 -115 31 -11 0 -28 -14 -41 -35z"/>
<path d="M2456 395 c-3 -9 1 -23 9 -31 8 -9 17 -26 20 -40 3 -13 7 -35 10 -49
7 -34 25 -32 25 4 0 62 -13 122 -25 117 -7 -2 -17 0 -22 5 -7 7 -12 5 -17 -6z"/>
<path d="M2704 333 c-33 -36 -46 -83 -22 -83 18 0 88 51 100 73 8 16 7 23 -8
34 -26 19 -33 17 -70 -24z"/>
<path d="M918 302 c-3 -20 -7 -44 -9 -52 -2 -9 2 -15 11 -15 11 0 15 13 16 48
2 57 -12 72 -18 19z"/>
</g>
</svg>
